<svg xmlns="http://www.w3.org/2000/svg" width="980" height="152" viewBox="0 0 980 152" role="img" aria-labelledby="title desc">
<title id="title">Agent Kernel supported agent stack</title>
<desc id="desc">Original icon marks for supported AI coding agent surfaces, styled in a thin JetBrains Mono interface strip.</desc>
<defs><linearGradient id="panel" x1="0" y1="0" x2="980" y2="152" gradientUnits="userSpaceOnUse"><stop offset="0" stop-color="#080d1d"/><stop offset="1" stop-color="#0d1324"/></linearGradient><linearGradient id="line" x1="0" y1="0" x2="980" y2="0" gradientUnits="userSpaceOnUse"><stop offset="0" stop-color="#38bdf8" stop-opacity="0.16"/><stop offset="0.5" stop-color="#a78bfa" stop-opacity="0.54"/><stop offset="1" stop-color="#22c55e" stop-opacity="0.16"/></linearGradient></defs>
<rect width="980" height="152" rx="40" fill="url(#panel)"/>
<rect x="1" y="1" width="978" height="150" rx="39" fill="none" stroke="url(#line)" stroke-width="1.1"/>
<text x="490" y="38" text-anchor="middle" font-family="JetBrains Mono, ui-monospace, SFMono-Regular, Menlo, Monaco, Consolas, monospace" font-size="16" font-weight="300" fill="#a8b3c7" letter-spacing="5.5">ONE LOCAL KERNEL FOR YOUR AGENT STACK</text>
<g>
<g transform="translate(47 68)"><rect width="138" height="48" rx="24" fill="#0f172a" fill-opacity="0.86" stroke="#28364d"/>
<svg x="18" y="12" width="24" height="24" viewBox="0 0 24 24" color="#e5e7eb" aria-hidden="true"><path clip-rule="evenodd" d="M20.998 10.949H24v3.102h-3v3.028h-1.487V20H18v-2.921h-1.487V20H15v-2.921H9V20H7.488v-2.921H6V20H4.487v-2.921H3V14.05H0V10.95h3V5h17.998v5.949zM6 10.949h1.488V8.102H6v2.847zm10.51 0H18V8.102h-1.49v2.847z" fill="#D97757" fill-rule="evenodd"></path></svg>
<text x="52" y="30" font-family="JetBrains Mono, ui-monospace, SFMono-Regular, Menlo, Monaco, Consolas, monospace" font-size="14" font-weight="300" fill="#e5e7eb">Claude</text></g>
<g transform="translate(205 68)"><rect width="138" height="48" rx="24" fill="#0f172a" fill-opacity="0.86" stroke="#28364d"/>
<svg x="18" y="12" width="24" height="24" viewBox="0 0 24 24" color="#e5e7eb" aria-hidden="true"><path d="M19.503 0H4.496A4.496 4.496 0 000 4.496v15.007A4.496 4.496 0 004.496 24h15.007A4.496 4.496 0 0024 19.503V4.496A4.496 4.496 0 0019.503 0z" fill="#fff"></path><path d="M9.064 3.344a4.578 4.578 0 012.285-.312c1 .115 1.891.54 2.673 1.275.01.01.024.017.037.021a.09.09 0 00.043 0 4.55 4.55 0 013.046.275l.047.022.116.057a4.581 4.581 0 012.188 2.399c.209.51.313 1.041.315 1.595a4.24 4.24 0 01-.134 1.223.123.123 0 00.03.115c.594.607.988 1.33 1.183 2.17.289 1.425-.007 2.71-.887 3.854l-.136.166a4.548 4.548 0 01-2.201 1.388.123.123 0 00-.081.076c-.191.551-.383 1.023-.74 1.494-.9 1.187-2.222 1.846-3.711 1.838-1.187-.006-2.239-.44-3.157-1.302a.107.107 0 00-.105-.024c-.388.125-.78.143-1.204.138a4.441 4.441 0 01-1.945-.466 4.544 4.544 0 01-1.61-1.335c-.152-.202-.303-.392-.414-.617a5.81 5.81 0 01-.37-.961 4.582 4.582 0 01-.014-2.298.124.124 0 00.006-.056.085.085 0 00-.027-.048 4.467 4.467 0 01-1.034-1.651 3.896 3.896 0 01-.251-1.192 5.189 5.189 0 01.141-1.6c.337-1.112.982-1.985 1.933-2.618.212-.141.413-.251.601-.33.215-.089.43-.164.646-.227a.098.098 0 00.065-.066 4.51 4.51 0 01.829-1.615 4.535 4.535 0 011.837-1.388zm3.482 10.565a.637.637 0 000 1.272h3.636a.637.637 0 100-1.272h-3.636zM8.462 9.23a.637.637 0 00-1.106.631l1.272 2.224-1.266 2.136a.636.636 0 101.095.649l1.454-2.455a.636.636 0 00.005-.64L8.462 9.23z" fill="url(#codex-lobe-icons-codex-_R_0_)"></path><defs><linearGradient gradientUnits="userSpaceOnUse" id="codex-lobe-icons-codex-_R_0_" x1="12" x2="12" y1="3" y2="21"><stop stop-color="#B1A7FF"></stop><stop offset=".5" stop-color="#7A9DFF"></stop><stop offset="1" stop-color="#3941FF"></stop></linearGradient></defs></svg>
<text x="52" y="30" font-family="JetBrains Mono, ui-monospace, SFMono-Regular, Menlo, Monaco, Consolas, monospace" font-size="14" font-weight="300" fill="#e5e7eb">Codex</text></g>
<g transform="translate(363 68)"><rect width="138" height="48" rx="24" fill="#0f172a" fill-opacity="0.86" stroke="#28364d"/>
<svg x="18" y="12" width="24" height="24" viewBox="0 0 24 24" color="#e5e7eb" fill="currentColor" fill-rule="evenodd" aria-hidden="true"><path d="M22.106 5.68L12.5.135a.998.998 0 00-.998 0L1.893 5.68a.84.84 0 00-.419.726v11.186c0 .3.16.577.42.727l9.607 5.547a.999.999 0 00.998 0l9.608-5.547a.84.84 0 00.42-.727V6.407a.84.84 0 00-.42-.726zm-.603 1.176L12.228 22.92c-.063.108-.228.064-.228-.061V12.34a.59.59 0 00-.295-.51l-9.11-5.26c-.107-.062-.063-.228.062-.228h18.55c.264 0 .428.286.296.514z"></path></svg>
<text x="52" y="30" font-family="JetBrains Mono, ui-monospace, SFMono-Regular, Menlo, Monaco, Consolas, monospace" font-size="14" font-weight="300" fill="#e5e7eb">Cursor</text></g>
<g transform="translate(521 68)"><rect width="138" height="48" rx="24" fill="#0f172a" fill-opacity="0.86" stroke="#28364d"/>
<svg x="18" y="12" width="24" height="24" viewBox="0 0 24 24" color="#e5e7eb" aria-hidden="true"><path d="M0 4.391A4.391 4.391 0 014.391 0h15.217A4.391 4.391 0 0124 4.391v15.217A4.391 4.391 0 0119.608 24H4.391A4.391 4.391 0 010 19.608V4.391z" fill="url(#gemini-lobe-icons-gemini-cli-_R_0_)"></path><path clip-rule="evenodd" d="M19.74 1.444a2.816 2.816 0 012.816 2.816v15.48a2.816 2.816 0 01-2.816 2.816H4.26a2.816 2.816 0 01-2.816-2.816V4.26A2.816 2.816 0 014.26 1.444h15.48zM7.236 8.564l7.752 3.728-7.752 3.727v2.802l9.557-4.596v-3.866L7.236 5.763v2.801z" fill="#1E1E2E" fill-rule="evenodd"></path><defs><linearGradient gradientUnits="userSpaceOnUse" id="gemini-lobe-icons-gemini-cli-_R_0_" x1="24" x2="0" y1="6.587" y2="16.494"><stop stop-color="#EE4D5D"></stop><stop offset=".328" stop-color="#B381DD"></stop><stop offset=".476" stop-color="#207CFE"></stop></linearGradient></defs></svg>
<text x="52" y="30" font-family="JetBrains Mono, ui-monospace, SFMono-Regular, Menlo, Monaco, Consolas, monospace" font-size="14" font-weight="300" fill="#e5e7eb">Gemini</text></g>
<g transform="translate(679 68)"><rect width="138" height="48" rx="24" fill="#0f172a" fill-opacity="0.86" stroke="#28364d"/>
<svg x="18" y="12" width="24" height="24" viewBox="0 0 24 24" color="#e5e7eb" fill="currentColor" fill-rule="evenodd" aria-hidden="true"><path d="M16 6H8v12h8V6zm4 16H4V2h16v20z"></path></svg>
<text x="52" y="30" font-family="JetBrains Mono, ui-monospace, SFMono-Regular, Menlo, Monaco, Consolas, monospace" font-size="14" font-weight="300" fill="#e5e7eb">OpenCode</text></g>
<g transform="translate(837 68)"><rect width="158" height="48" rx="24" fill="#0f172a" fill-opacity="0.86" stroke="#28364d"/><rect x="19" y="12" width="23" height="24" rx="5" fill="none" stroke="#e5e7eb" stroke-width="1.4"/><path d="M25 20h11M25 26h11M25 32h7" stroke="#e5e7eb" stroke-width="1.4" stroke-linecap="round"/><text x="54" y="30" font-family="JetBrains Mono, ui-monospace, SFMono-Regular, Menlo, Monaco, Consolas, monospace" font-size="14" font-weight="300" fill="#e5e7eb">AGENTS.md</text></g>
</g>
<text x="490" y="132" text-anchor="middle" font-family="JetBrains Mono, ui-monospace, SFMono-Regular, Menlo, Monaco, Consolas, monospace" font-size="10" font-weight="300" fill="#64748b" letter-spacing="0.8">Icons sourced from the uploaded LobeHub icon set. Vendor names and marks belong to their respective owners.</text>
</svg>
