<svg xmlns="http://www.w3.org/2000/svg" width="860" height="220" viewBox="0 0 860 220" role="img" aria-labelledby="title desc">
  <title id="title">Agent Kernel Wordmark</title>
  <desc id="desc">Minimal Agent Kernel wordmark with a compact local kernel symbol.</desc>
  <rect width="860" height="220" rx="28" fill="#050505"/>
  <g transform="translate(42 42)">
    <rect x="0" y="0" width="136" height="136" rx="16" fill="#050505" stroke="#2A2A2A" stroke-width="3"/>
    <g shape-rendering="crispEdges" transform="translate(29 25) scale(.62)">
      <rect x="0" y="0" width="18" height="18" fill="#F4F4F1"/><rect x="18" y="0" width="18" height="18" fill="#F4F4F1"/><rect x="92" y="0" width="18" height="18" fill="#F4F4F1"/><rect x="110" y="0" width="18" height="18" fill="#F4F4F1"/>
      <rect x="0" y="18" width="18" height="18" fill="#F4F4F1"/><rect x="110" y="18" width="18" height="18" fill="#F4F4F1"/>
      <rect x="0" y="100" width="18" height="18" fill="#F4F4F1"/><rect x="110" y="100" width="18" height="18" fill="#F4F4F1"/>
      <rect x="0" y="118" width="18" height="18" fill="#F4F4F1"/><rect x="18" y="118" width="18" height="18" fill="#F4F4F1"/><rect x="92" y="118" width="18" height="18" fill="#F4F4F1"/><rect x="110" y="118" width="18" height="18" fill="#F4F4F1"/>
      <rect x="36" y="36" width="18" height="18" fill="#A6A6A0"/><rect x="74" y="36" width="18" height="18" fill="#A6A6A0"/><rect x="36" y="82" width="18" height="18" fill="#A6A6A0"/><rect x="74" y="82" width="18" height="18" fill="#A6A6A0"/>
      <rect x="55" y="59" width="18" height="18" fill="#F8F46A"/><rect x="55" y="36" width="18" height="18" fill="#F8F46A"/><rect x="55" y="82" width="18" height="18" fill="#F8F46A"/><rect x="32" y="59" width="18" height="18" fill="#F8F46A"/><rect x="78" y="59" width="18" height="18" fill="#F8F46A"/>
    </g>
  </g>
  <g font-family="JetBrains Mono, SFMono-Regular, Consolas, Liberation Mono, monospace" font-weight="500">
    <text x="206" y="118" font-size="50" fill="#F4F4F1" letter-spacing="-1">Agent</text>
    <text x="398" y="118" font-size="50" fill="#F8F46A" letter-spacing="-1">Kernel</text>
    <text x="210" y="152" font-size="18" fill="#8E8E88">local memory layer for coding agents</text>
  </g>
</svg>
